<svg id="mermaid-1775149819115" width="753.0045166015625" xmlns="http://www.w3.org/2000/svg" xmlns:xlink="http://www.w3.org/1999/xlink" class="flowchart" height="740" role="graphics-document document" aria-roledescription="flowchart-v2" xmlns:ev="http://www.w3.org/2001/xml-events" style="overflow: hidden; width: 753.005px; height: 740px;"><g id="viewport-20260402171019366" class="svg-pan-zoom_viewport" transform="matrix(0.7081081081081081,0,0,0.7081081081081081,311.39569277376745,0)" style="transform: matrix(0.708108, 0, 0, 0.708108, 311.396, 0);"><style>#mermaid-1775149819115{font-family:"trebuchet ms",verdana,arial,sans-serif;font-size:16px;fill:#ccc;}@keyframes edge-animation-frame{from{stroke-dashoffset:0;}}@keyframes dash{to{stroke-dashoffset:0;}}#mermaid-1775149819115 .edge-animation-slow{stroke-dasharray:9,5!important;stroke-dashoffset:900;animation:dash 50s linear infinite;stroke-linecap:round;}#mermaid-1775149819115 .edge-animation-fast{stroke-dasharray:9,5!important;stroke-dashoffset:900;animation:dash 20s linear infinite;stroke-linecap:round;}#mermaid-1775149819115 .error-icon{fill:#a44141;}#mermaid-1775149819115 .error-text{fill:#ddd;stroke:#ddd;}#mermaid-1775149819115 .edge-thickness-normal{stroke-width:1px;}#mermaid-1775149819115 .edge-thickness-thick{stroke-width:3.5px;}#mermaid-1775149819115 .edge-pattern-solid{stroke-dasharray:0;}#mermaid-1775149819115 .edge-thickness-invisible{stroke-width:0;fill:none;}#mermaid-1775149819115 .edge-pattern-dashed{stroke-dasharray:3;}#mermaid-1775149819115 .edge-pattern-dotted{stroke-dasharray:2;}#mermaid-1775149819115 .marker{fill:lightgrey;stroke:lightgrey;}#mermaid-1775149819115 .marker.cross{stroke:lightgrey;}#mermaid-1775149819115 svg{font-family:"trebuchet ms",verdana,arial,sans-serif;font-size:16px;}#mermaid-1775149819115 p{margin:0;}#mermaid-1775149819115 .label{font-family:"trebuchet ms",verdana,arial,sans-serif;color:#ccc;}#mermaid-1775149819115 .cluster-label text{fill:#F9FFFE;}#mermaid-1775149819115 .cluster-label span{color:#F9FFFE;}#mermaid-1775149819115 .cluster-label span p{background-color:transparent;}#mermaid-1775149819115 .label text,#mermaid-1775149819115 span{fill:#ccc;color:#ccc;}#mermaid-1775149819115 .node rect,#mermaid-1775149819115 .node circle,#mermaid-1775149819115 .node ellipse,#mermaid-1775149819115 .node polygon,#mermaid-1775149819115 .node path{fill:#1f2020;stroke:#ccc;stroke-width:1px;}#mermaid-1775149819115 .rough-node .label text,#mermaid-1775149819115 .node .label text,#mermaid-1775149819115 .image-shape .label,#mermaid-1775149819115 .icon-shape .label{text-anchor:middle;}#mermaid-1775149819115 .node .katex path{fill:#000;stroke:#000;stroke-width:1px;}#mermaid-1775149819115 .rough-node .label,#mermaid-1775149819115 .node .label,#mermaid-1775149819115 .image-shape .label,#mermaid-1775149819115 .icon-shape .label{text-align:center;}#mermaid-1775149819115 .node.clickable{cursor:pointer;}#mermaid-1775149819115 .root .anchor path{fill:lightgrey!important;stroke-width:0;stroke:lightgrey;}#mermaid-1775149819115 .arrowheadPath{fill:lightgrey;}#mermaid-1775149819115 .edgePath .path{stroke:lightgrey;stroke-width:2.0px;}#mermaid-1775149819115 .flowchart-link{stroke:lightgrey;fill:none;}#mermaid-1775149819115 .edgeLabel{background-color:hsl(0, 0%, 34.4117647059%);text-align:center;}#mermaid-1775149819115 .edgeLabel p{background-color:hsl(0, 0%, 34.4117647059%);}#mermaid-1775149819115 .edgeLabel rect{opacity:0.5;background-color:hsl(0, 0%, 34.4117647059%);fill:hsl(0, 0%, 34.4117647059%);}#mermaid-1775149819115 .labelBkg{background-color:rgba(87.75, 87.75, 87.75, 0.5);}#mermaid-1775149819115 .cluster rect{fill:hsl(180, 1.5873015873%, 28.3529411765%);stroke:rgba(255, 255, 255, 0.25);stroke-width:1px;}#mermaid-1775149819115 .cluster text{fill:#F9FFFE;}#mermaid-1775149819115 .cluster span{color:#F9FFFE;}#mermaid-1775149819115 div.mermaidTooltip{position:absolute;text-align:center;max-width:200px;padding:2px;font-family:"trebuchet ms",verdana,arial,sans-serif;font-size:12px;background:hsl(20, 1.5873015873%, 12.3529411765%);border:1px solid rgba(255, 255, 255, 0.25);border-radius:2px;pointer-events:none;z-index:100;}#mermaid-1775149819115 .flowchartTitleText{text-anchor:middle;font-size:18px;fill:#ccc;}#mermaid-1775149819115 rect.text{fill:none;stroke-width:0;}#mermaid-1775149819115 .icon-shape,#mermaid-1775149819115 .image-shape{background-color:hsl(0, 0%, 34.4117647059%);text-align:center;}#mermaid-1775149819115 .icon-shape p,#mermaid-1775149819115 .image-shape p{background-color:hsl(0, 0%, 34.4117647059%);padding:2px;}#mermaid-1775149819115 .icon-shape rect,#mermaid-1775149819115 .image-shape rect{opacity:0.5;background-color:hsl(0, 0%, 34.4117647059%);fill:hsl(0, 0%, 34.4117647059%);}#mermaid-1775149819115 .label-icon{display:inline-block;height:1em;overflow:visible;vertical-align:-0.125em;}#mermaid-1775149819115 .node .label-icon path{fill:currentColor;stroke:revert;stroke-width:revert;}#mermaid-1775149819115 :root{--mermaid-font-family:"trebuchet ms",verdana,arial,sans-serif;}#mermaid-1775149819115 .coreStyle&gt;*{fill:#90EE90!important;stroke:#00AA00!important;stroke-width:2px!important;color:#000!important;}#mermaid-1775149819115 .coreStyle span{fill:#90EE90!important;stroke:#00AA00!important;stroke-width:2px!important;color:#000!important;}#mermaid-1775149819115 .coreStyle tspan{fill:#000!important;}#mermaid-1775149819115 .reportStyle&gt;*{fill:#FFB6C1!important;stroke:#CC00CC!important;stroke-width:2px!important;color:#000!important;}#mermaid-1775149819115 .reportStyle span{fill:#FFB6C1!important;stroke:#CC00CC!important;stroke-width:2px!important;color:#000!important;}#mermaid-1775149819115 .reportStyle tspan{fill:#000!important;}#mermaid-1775149819115 .configStyle&gt;*{fill:#87CEEB!important;stroke:#0066FF!important;stroke-width:2px!important;color:#000!important;}#mermaid-1775149819115 .configStyle span{fill:#87CEEB!important;stroke:#0066FF!important;stroke-width:2px!important;color:#000!important;}#mermaid-1775149819115 .configStyle tspan{fill:#000!important;}#mermaid-1775149819115 .toolStyle&gt;*{fill:#FFD700!important;stroke:#FF6600!important;stroke-width:2px!important;color:#000!important;}#mermaid-1775149819115 .toolStyle span{fill:#FFD700!important;stroke:#FF6600!important;stroke-width:2px!important;color:#000!important;}#mermaid-1775149819115 .toolStyle tspan{fill:#000!important;}#mermaid-1775149819115 .entryStyle&gt;*{fill:#F5F5F5!important;stroke:#666666!important;stroke-width:2px!important;color:#000!important;}#mermaid-1775149819115 .entryStyle span{fill:#F5F5F5!important;stroke:#666666!important;stroke-width:2px!important;color:#000!important;}#mermaid-1775149819115 .entryStyle tspan{fill:#000!important;}</style><g><marker id="mermaid-1775149819115_flowchart-v2-pointEnd" class="marker flowchart-v2" viewBox="0 0 10 10" refX="5" refY="5" markerUnits="userSpaceOnUse" markerWidth="8" markerHeight="8" orient="auto"><path d="M 0 0 L 10 5 L 0 10 z" class="arrowMarkerPath" style="stroke-width: 1; stroke-dasharray: 1, 0;"/></marker><marker id="mermaid-1775149819115_flowchart-v2-pointStart" class="marker flowchart-v2" viewBox="0 0 10 10" refX="4.5" refY="5" markerUnits="userSpaceOnUse" markerWidth="8" markerHeight="8" orient="auto"><path d="M 0 5 L 10 10 L 10 0 z" class="arrowMarkerPath" style="stroke-width: 1; stroke-dasharray: 1, 0;"/></marker><marker id="mermaid-1775149819115_flowchart-v2-circleEnd" class="marker flowchart-v2" viewBox="0 0 10 10" refX="11" refY="5" markerUnits="userSpaceOnUse" markerWidth="11" markerHeight="11" orient="auto"><circle cx="5" cy="5" r="5" class="arrowMarkerPath" style="stroke-width: 1; stroke-dasharray: 1, 0;"/></marker><marker id="mermaid-1775149819115_flowchart-v2-circleStart" class="marker flowchart-v2" viewBox="0 0 10 10" refX="-1" refY="5" markerUnits="userSpaceOnUse" markerWidth="11" markerHeight="11" orient="auto"><circle cx="5" cy="5" r="5" class="arrowMarkerPath" style="stroke-width: 1; stroke-dasharray: 1, 0;"/></marker><marker id="mermaid-1775149819115_flowchart-v2-crossEnd" class="marker cross flowchart-v2" viewBox="0 0 11 11" refX="12" refY="5.2" markerUnits="userSpaceOnUse" markerWidth="11" markerHeight="11" orient="auto"><path d="M 1,1 l 9,9 M 10,1 l -9,9" class="arrowMarkerPath" style="stroke-width: 2; stroke-dasharray: 1, 0;"/></marker><marker id="mermaid-1775149819115_flowchart-v2-crossStart" class="marker cross flowchart-v2" viewBox="0 0 11 11" refX="-1" refY="5.2" markerUnits="userSpaceOnUse" markerWidth="11" markerHeight="11" orient="auto"><path d="M 1,1 l 9,9 M 10,1 l -9,9" class="arrowMarkerPath" style="stroke-width: 2; stroke-dasharray: 1, 0;"/></marker><g class="root"><g class="clusters"><g class="cluster " id="N0" data-look="classic"><rect style="" x="233.79910278320312" y="8" width="324.1562805175781" height="476"/><g class="cluster-label " transform="translate(352.7165222167969, 8)"><foreignObject width="86.32144165039062" height="24.000001907348633"><div xmlns="http://www.w3.org/1999/xhtml" style="display: table-cell; white-space: nowrap; line-height: 1.5; max-width: 200px; text-align: center;"><span class="nodeLabel "><p>components</p></span></div></foreignObject></g></g></g><g class="edgePaths"><path d="M493.362,75L504.127,75C514.893,75,536.424,75,551.356,75C566.289,75,574.622,75,592.322,114.286C610.022,153.573,637.088,232.145,650.621,271.432L664.154,310.718" id="L_N1_N7_0" class=" edge-thickness-normal edge-pattern-solid edge-thickness-normal edge-pattern-solid flowchart-link" style="stroke:#0066CC;stroke-width:2px;fill:none;" marker-end="url(#mermaid-1775149819115_flowchart-v2-pointEnd__0066CC)"/><path d="M107.369,449L124.274,496.167C141.179,543.333,174.989,637.667,196.061,684.833C217.132,732,225.466,732,256.645,732C287.825,732,341.851,732,395.877,732C449.903,732,503.929,732,535.109,732C566.289,732,574.622,732,592.925,673.731C611.228,615.462,639.501,498.925,653.637,440.656L667.773,382.387" id="L_N6_N7_0" class=" edge-thickness-normal edge-pattern-solid edge-thickness-normal edge-pattern-solid flowchart-link" style="stroke:#0066CC;stroke-width:2px;fill:none;" marker-end="url(#mermaid-1775149819115_flowchart-v2-pointEnd__0066CC)"/><path d="M122.861,449L137.184,466C151.507,483,180.153,517,198.643,534C217.132,551,225.466,551,242.084,551C258.702,551,283.606,551,296.057,551L308.509,551" id="L_N6_N5_0" class=" edge-thickness-normal edge-pattern-solid edge-thickness-normal edge-pattern-solid flowchart-link" style="stroke:#0066CC;stroke-width:2px;fill:none;" marker-end="url(#mermaid-1775149819115_flowchart-v2-pointEnd__0066CC)"/><path d="M110.467,449L126.856,485C143.245,521,176.022,593,196.577,629C217.132,665,225.466,665,245.184,665C264.902,665,296.004,665,311.556,665L327.107,665" id="L_N6_N8_0" class=" edge-thickness-normal edge-pattern-solid edge-thickness-normal edge-pattern-solid flowchart-link" style="stroke:#0066CC;stroke-width:2px;fill:none;" marker-end="url(#mermaid-1775149819115_flowchart-v2-pointEnd__0066CC)"/><path d="M111.745,385L127.921,352.333C144.096,319.667,176.448,254.333,196.79,221.667C217.132,189,225.466,189,233.132,189C240.799,189,247.799,189,251.299,189L254.799,189" id="L_N6_N2_0" class=" edge-thickness-normal edge-pattern-solid edge-thickness-normal edge-pattern-solid flowchart-link" style="stroke:#0066CC;stroke-width:2px;fill:none;" marker-end="url(#mermaid-1775149819115_flowchart-v2-pointEnd__0066CC)"/><path d="M106.463,385L123.519,333.333C140.575,281.667,174.687,178.333,195.91,126.667C217.132,75,225.466,75,239.731,75C253.997,75,274.195,75,284.294,75L294.393,75" id="L_N6_N1_0" class=" edge-thickness-normal edge-pattern-solid edge-thickness-normal edge-pattern-solid flowchart-link" style="stroke:#0066CC;stroke-width:2px;fill:none;" marker-end="url(#mermaid-1775149819115_flowchart-v2-pointEnd__0066CC)"/><path d="M168.737,417L175.414,417C182.091,417,195.445,417,206.289,417C217.132,417,225.466,417,240.498,417C255.531,417,277.262,417,288.128,417L298.993,417" id="L_N6_N4_0" class=" edge-thickness-normal edge-pattern-solid edge-thickness-normal edge-pattern-solid flowchart-link" style="stroke:#0066CC;stroke-width:2px;fill:none;" marker-end="url(#mermaid-1775149819115_flowchart-v2-pointEnd__0066CC)"/><path d="M127.591,385L141.125,371.333C154.66,357.667,181.73,330.333,199.431,316.667C217.132,303,225.466,303,244.071,303C262.676,303,291.554,303,305.992,303L320.431,303" id="L_N6_N3_0" class=" edge-thickness-normal edge-pattern-solid edge-thickness-normal edge-pattern-solid flowchart-link" style="stroke:#0066CC;stroke-width:2px;fill:none;" marker-end="url(#mermaid-1775149819115_flowchart-v2-pointEnd__0066CC)"/></g><g class="edgeLabels"><g class="edgeLabel"><g class="label" transform="translate(0, 0)"><foreignObject width="0" height="0"><div style="stroke: rgb(0, 102, 204); stroke-width: 2px; display: table-cell; white-space: nowrap; line-height: 1.5; max-width: 200px; text-align: center;" xmlns="http://www.w3.org/1999/xhtml" class="labelBkg"><span style=";stroke:#0066CC;stroke-width:2px;color:none" class="edgeLabel "></span></div></foreignObject></g></g><g class="edgeLabel"><g class="label" transform="translate(0, 0)"><foreignObject width="0" height="0"><div style="stroke: rgb(0, 102, 204); stroke-width: 2px; display: table-cell; white-space: nowrap; line-height: 1.5; max-width: 200px; text-align: center;" xmlns="http://www.w3.org/1999/xhtml" class="labelBkg"><span style=";stroke:#0066CC;stroke-width:2px;color:none" class="edgeLabel "></span></div></foreignObject></g></g><g class="edgeLabel"><g class="label" transform="translate(0, 0)"><foreignObject width="0" height="0"><div style="stroke: rgb(0, 102, 204); stroke-width: 2px; display: table-cell; white-space: nowrap; line-height: 1.5; max-width: 200px; text-align: center;" xmlns="http://www.w3.org/1999/xhtml" class="labelBkg"><span style=";stroke:#0066CC;stroke-width:2px;color:none" class="edgeLabel "></span></div></foreignObject></g></g><g class="edgeLabel"><g class="label" transform="translate(0, 0)"><foreignObject width="0" height="0"><div style="stroke: rgb(0, 102, 204); stroke-width: 2px; display: table-cell; white-space: nowrap; line-height: 1.5; max-width: 200px; text-align: center;" xmlns="http://www.w3.org/1999/xhtml" class="labelBkg"><span style=";stroke:#0066CC;stroke-width:2px;color:none" class="edgeLabel "></span></div></foreignObject></g></g><g class="edgeLabel"><g class="label" transform="translate(0, 0)"><foreignObject width="0" height="0"><div style="stroke: rgb(0, 102, 204); stroke-width: 2px; display: table-cell; white-space: nowrap; line-height: 1.5; max-width: 200px; text-align: center;" xmlns="http://www.w3.org/1999/xhtml" class="labelBkg"><span style=";stroke:#0066CC;stroke-width:2px;color:none" class="edgeLabel "></span></div></foreignObject></g></g><g class="edgeLabel"><g class="label" transform="translate(0, 0)"><foreignObject width="0" height="0"><div style="stroke: rgb(0, 102, 204); stroke-width: 2px; display: table-cell; white-space: nowrap; line-height: 1.5; max-width: 200px; text-align: center;" xmlns="http://www.w3.org/1999/xhtml" class="labelBkg"><span style=";stroke:#0066CC;stroke-width:2px;color:none" class="edgeLabel "></span></div></foreignObject></g></g><g class="edgeLabel"><g class="label" transform="translate(0, 0)"><foreignObject width="0" height="0"><div style="stroke: rgb(0, 102, 204); stroke-width: 2px; display: table-cell; white-space: nowrap; line-height: 1.5; max-width: 200px; text-align: center;" xmlns="http://www.w3.org/1999/xhtml" class="labelBkg"><span style=";stroke:#0066CC;stroke-width:2px;color:none" class="edgeLabel "></span></div></foreignObject></g></g><g class="edgeLabel"><g class="label" transform="translate(0, 0)"><foreignObject width="0" height="0"><div style="stroke: rgb(0, 102, 204); stroke-width: 2px; display: table-cell; white-space: nowrap; line-height: 1.5; max-width: 200px; text-align: center;" xmlns="http://www.w3.org/1999/xhtml" class="labelBkg"><span style=";stroke:#0066CC;stroke-width:2px;color:none" class="edgeLabel "></span></div></foreignObject></g></g></g><g class="nodes"><g class="node default entryStyle " id="flowchart-N1-0" transform="translate(395.8772430419922, 75)"><rect class="basic label-container" style="fill:#F5F5F5 !important;stroke:#666666 !important;stroke-width:2px !important" x="-97.48438262939453" y="-32.000000953674316" width="194.96876525878906" height="64.00000190734863"/><g class="label" style="color:#000 !important" transform="translate(-57.48438262939453, -12.000000953674316)"><rect/><foreignObject width="114.96876525878906" height="24.000001907348633"><div style="color: rgb(0, 0, 0) !important; display: table-cell; white-space: nowrap; line-height: 1.5; max-width: 200px; text-align: center;" xmlns="http://www.w3.org/1999/xhtml"><span style="color:#000 !important" class="nodeLabel "><p>ArtifactCard.tsx</p></span></div></foreignObject></g></g><g class="node default entryStyle " id="flowchart-N2-1" transform="translate(395.8772430419922, 189)"><rect class="basic label-container" style="fill:#F5F5F5 !important;stroke:#666666 !important;stroke-width:2px !important" x="-137.07814025878906" y="-32.000000953674316" width="274.1562805175781" height="64.00000190734863"/><g class="label" style="color:#000 !important" transform="translate(-97.07814025878906, -12.000000953674316)"><rect/><foreignObject width="194.15628051757812" height="24.000001907348633"><div style="color: rgb(0, 0, 0) !important; display: table-cell; white-space: nowrap; line-height: 1.5; max-width: 200px; text-align: center;" xmlns="http://www.w3.org/1999/xhtml"><span style="color:#000 !important" class="nodeLabel "><p>DottedGlowBackground.tsx</p></span></div></foreignObject></g></g><g class="node default entryStyle " id="flowchart-N3-2" transform="translate(395.8772430419922, 303)"><rect class="basic label-container" style="fill:#F5F5F5 !important;stroke:#666666 !important;stroke-width:2px !important" x="-71.44643211364746" y="-32.000000953674316" width="142.89286422729492" height="64.00000190734863"/><g class="label" style="color:#000 !important" transform="translate(-31.44643211364746, -12.000000953674316)"><rect/><foreignObject width="62.89286422729492" height="24.000001907348633"><div style="color: rgb(0, 0, 0) !important; display: table-cell; white-space: nowrap; line-height: 1.5; max-width: 200px; text-align: center;" xmlns="http://www.w3.org/1999/xhtml"><span style="color:#000 !important" class="nodeLabel "><p>Icons.tsx</p></span></div></foreignObject></g></g><g class="node default entryStyle " id="flowchart-N4-3" transform="translate(395.8772430419922, 417)"><rect class="basic label-container" style="fill:#F5F5F5 !important;stroke:#666666 !important;stroke-width:2px !important" x="-92.88393020629883" y="-32.000000953674316" width="185.76786041259766" height="64.00000190734863"/><g class="label" style="color:#000 !important" transform="translate(-52.88393020629883, -12.000000953674316)"><rect/><foreignObject width="105.76786041259766" height="24.000001907348633"><div style="color: rgb(0, 0, 0) !important; display: table-cell; white-space: nowrap; line-height: 1.5; max-width: 200px; text-align: center;" xmlns="http://www.w3.org/1999/xhtml"><span style="color:#000 !important" class="nodeLabel "><p>SideDrawer.tsx</p></span></div></foreignObject></g></g><g class="node default entryStyle " id="flowchart-N5-4" transform="translate(395.8772430419922, 551)"><rect class="basic label-container" style="fill:#F5F5F5 !important;stroke:#666666 !important;stroke-width:2px !important" x="-83.36830520629883" y="-32.000000953674316" width="166.73661041259766" height="64.00000190734863"/><g class="label" style="color:#000 !important" transform="translate(-43.36830520629883, -12.000000953674316)"><rect/><foreignObject width="86.73661041259766" height="24.000001907348633"><div style="color: rgb(0, 0, 0) !important; display: table-cell; white-space: nowrap; line-height: 1.5; max-width: 200px; text-align: center;" xmlns="http://www.w3.org/1999/xhtml"><span style="color:#000 !important" class="nodeLabel "><p>constants.ts</p></span></div></foreignObject></g></g><g class="node default entryStyle" id="flowchart-N6-5" transform="translate(95.89955139160156, 417)"><rect class="basic label-container" style="fill:#F5F5F5 !important;stroke:#666666 !important;stroke-width:2px !important" x="-72.8370590209961" y="-32.000000953674316" width="145.6741180419922" height="64.00000190734863"/><g class="label" style="color:#000 !important" transform="translate(-32.837059020996094, -12.000000953674316)"><rect/><foreignObject width="65.67411804199219" height="24.000001907348633"><div style="color: rgb(0, 0, 0) !important; display: table-cell; white-space: nowrap; line-height: 1.5; max-width: 200px; text-align: center;" xmlns="http://www.w3.org/1999/xhtml"><span style="color:#000 !important" class="nodeLabel "><p>index.tsx</p></span></div></foreignObject></g></g><g class="node default entryStyle " id="flowchart-N7-6" transform="translate(676.4799423217773, 346.5)"><rect class="basic label-container" style="fill:#F5F5F5 !important;stroke:#666666 !important;stroke-width:2px !important" x="-68.52455711364746" y="-32.000000953674316" width="137.04911422729492" height="64.00000190734863"/><g class="label" style="color:#000 !important" transform="translate(-28.52455711364746, -12.000000953674316)"><rect/><foreignObject width="57.04911422729492" height="24.000001907348633"><div style="color: rgb(0, 0, 0) !important; display: table-cell; white-space: nowrap; line-height: 1.5; max-width: 200px; text-align: center;" xmlns="http://www.w3.org/1999/xhtml"><span style="color:#000 !important" class="nodeLabel "><p>types.ts</p></span></div></foreignObject></g></g><g class="node default entryStyle " id="flowchart-N8-7" transform="translate(395.8772430419922, 665)"><rect class="basic label-container" style="fill:#F5F5F5 !important;stroke:#666666 !important;stroke-width:2px !important" x="-64.77009010314941" y="-32.000000953674316" width="129.54018020629883" height="64.00000190734863"/><g class="label" style="color:#000 !important" transform="translate(-24.770090103149414, -12.000000953674316)"><rect/><foreignObject width="49.54018020629883" height="24.000001907348633"><div style="color: rgb(0, 0, 0) !important; display: table-cell; white-space: nowrap; line-height: 1.5; max-width: 200px; text-align: center;" xmlns="http://www.w3.org/1999/xhtml"><span style="color:#000 !important" class="nodeLabel "><p>utils.ts</p></span></div></foreignObject></g></g><g class="node default configStyle" id="flowchart-N9-8" transform="translate(95.89955139160156, 531)"><rect class="basic label-container" style="fill:#87CEEB !important;stroke:#0066FF !important;stroke-width:2px !important" x="-87.89955520629883" y="-32.000000953674316" width="175.79911041259766" height="64.00000190734863"/><g class="label" style="color:#000 !important" transform="translate(-47.89955520629883, -12.000000953674316)"><rect/><foreignObject width="95.79911041259766" height="24.000001907348633"><div style="color: rgb(0, 0, 0) !important; display: table-cell; white-space: nowrap; line-height: 1.5; max-width: 200px; text-align: center;" xmlns="http://www.w3.org/1999/xhtml"><span style="color:#000 !important" class="nodeLabel "><p>vite.config.ts</p></span></div></foreignObject></g></g></g></g><marker id="mermaid-1775149819115_flowchart-v2-pointEnd__0066CC" class="marker flowchart-v2" viewBox="0 0 10 10" refX="5" refY="5" markerUnits="userSpaceOnUse" markerWidth="8" markerHeight="8" orient="auto"><path d="M 0 0 L 10 5 L 0 10 z" class="arrowMarkerPath" style="stroke-width: 1; stroke-dasharray: 1, 0;" stroke="#0066CC" fill="#0066CC"/></marker></g></g><defs><style id="svg-pan-zoom-controls-styles" type="text/css">.svg-pan-zoom-control { cursor: pointer; fill: black; fill-opacity: 0.333; } .svg-pan-zoom-control:hover { fill-opacity: 0.8; } .svg-pan-zoom-control-background { fill: white; fill-opacity: 0.5; } .svg-pan-zoom-control-background { fill-opacity: 0.8; }</style></defs><g id="svg-pan-zoom-controls" transform="translate(1086 448) scale(0.75)" class="svg-pan-zoom-control"><g id="svg-pan-zoom-zoom-in" transform="translate(30.5 5) scale(0.015)" class="svg-pan-zoom-control"><rect x="0" y="0" width="1500" height="1400" class="svg-pan-zoom-control-background"/><path d="M1280 576v128q0 26 -19 45t-45 19h-320v320q0 26 -19 45t-45 19h-128q-26 0 -45 -19t-19 -45v-320h-320q-26 0 -45 -19t-19 -45v-128q0 -26 19 -45t45 -19h320v-320q0 -26 19 -45t45 -19h128q26 0 45 19t19 45v320h320q26 0 45 19t19 45zM1536 1120v-960 q0 -119 -84.5 -203.5t-203.5 -84.5h-960q-119 0 -203.5 84.5t-84.5 203.5v960q0 119 84.5 203.5t203.5 84.5h960q119 0 203.5 -84.5t84.5 -203.5z" class="svg-pan-zoom-control-element"/></g><g id="svg-pan-zoom-reset-pan-zoom" transform="translate(5 35) scale(0.4)" class="svg-pan-zoom-control"><rect x="2" y="2" width="182" height="58" class="svg-pan-zoom-control-background"/><path d="M33.051,20.632c-0.742-0.406-1.854-0.609-3.338-0.609h-7.969v9.281h7.769c1.543,0,2.701-0.188,3.473-0.562c1.365-0.656,2.048-1.953,2.048-3.891C35.032,22.757,34.372,21.351,33.051,20.632z" class="svg-pan-zoom-control-element"/><path d="M170.231,0.5H15.847C7.102,0.5,0.5,5.708,0.5,11.84v38.861C0.5,56.833,7.102,61.5,15.847,61.5h154.384c8.745,0,15.269-4.667,15.269-10.798V11.84C185.5,5.708,178.976,0.5,170.231,0.5z M42.837,48.569h-7.969c-0.219-0.766-0.375-1.383-0.469-1.852c-0.188-0.969-0.289-1.961-0.305-2.977l-0.047-3.211c-0.03-2.203-0.41-3.672-1.142-4.406c-0.732-0.734-2.103-1.102-4.113-1.102h-7.05v13.547h-7.055V14.022h16.524c2.361,0.047,4.178,0.344,5.45,0.891c1.272,0.547,2.351,1.352,3.234,2.414c0.731,0.875,1.31,1.844,1.737,2.906s0.64,2.273,0.64,3.633c0,1.641-0.414,3.254-1.242,4.84s-2.195,2.707-4.102,3.363c1.594,0.641,2.723,1.551,3.387,2.73s0.996,2.98,0.996,5.402v2.32c0,1.578,0.063,2.648,0.19,3.211c0.19,0.891,0.635,1.547,1.333,1.969V48.569z M75.579,48.569h-26.18V14.022h25.336v6.117H56.454v7.336h16.781v6H56.454v8.883h19.125V48.569z M104.497,46.331c-2.44,2.086-5.887,3.129-10.34,3.129c-4.548,0-8.125-1.027-10.731-3.082s-3.909-4.879-3.909-8.473h6.891c0.224,1.578,0.662,2.758,1.316,3.539c1.196,1.422,3.246,2.133,6.15,2.133c1.739,0,3.151-0.188,4.236-0.562c2.058-0.719,3.087-2.055,3.087-4.008c0-1.141-0.504-2.023-1.512-2.648c-1.008-0.609-2.607-1.148-4.796-1.617l-3.74-0.82c-3.676-0.812-6.201-1.695-7.576-2.648c-2.328-1.594-3.492-4.086-3.492-7.477c0-3.094,1.139-5.664,3.417-7.711s5.623-3.07,10.036-3.07c3.685,0,6.829,0.965,9.431,2.895c2.602,1.93,3.966,4.73,4.093,8.402h-6.938c-0.128-2.078-1.057-3.555-2.787-4.43c-1.154-0.578-2.587-0.867-4.301-0.867c-1.907,0-3.428,0.375-4.565,1.125c-1.138,0.75-1.706,1.797-1.706,3.141c0,1.234,0.561,2.156,1.682,2.766c0.721,0.406,2.25,0.883,4.589,1.43l6.063,1.43c2.657,0.625,4.648,1.461,5.975,2.508c2.059,1.625,3.089,3.977,3.089,7.055C108.157,41.624,106.937,44.245,104.497,46.331z M139.61,48.569h-26.18V14.022h25.336v6.117h-18.281v7.336h16.781v6h-16.781v8.883h19.125V48.569z M170.337,20.14h-10.336v28.43h-7.266V20.14h-10.383v-6.117h27.984V20.14z" class="svg-pan-zoom-control-element"/></g><g id="svg-pan-zoom-zoom-out" transform="translate(30.5 70) scale(0.015)" class="svg-pan-zoom-control"><rect x="0" y="0" width="1500" height="1400" class="svg-pan-zoom-control-background"/><path d="M1280 576v128q0 26 -19 45t-45 19h-896q-26 0 -45 -19t-19 -45v-128q0 -26 19 -45t45 -19h896q26 0 45 19t19 45zM1536 1120v-960q0 -119 -84.5 -203.5t-203.5 -84.5h-960q-119 0 -203.5 84.5t-84.5 203.5v960q0 119 84.5 203.5t203.5 84.5h960q119 0 203.5 -84.5 t84.5 -203.5z" class="svg-pan-zoom-control-element"/></g></g></svg>